# xmcd CD database file
#
# Track frame offsets:
#	150
#	29017
#	51386
#	77130
#	90667
#	108635
#	122003
#	148172
#	162108
#	176548
#	194503
#	213474
#	238489
#	262247
#	273423
#
# Disc length: 3806 seconds
#
# Revision: 0
# Processed by: cddbd v1.5PL3 Copyright (c) Steve Scherf et al.
# Submitted via: CDex 1.51
#
DISCID=ec0edc0f
DTITLE=Sojiro - 25th Anniversary  Best Selection Disc 2
DYEAR=2000
DGENRE=New Age
TTITLE0=[Japanese Titles]
TTITLE1=[Japanese Titles]
TTITLE2=[Japanese Titles]
TTITLE3=[Japanese Titles]
TTITLE4=[Japanese Titles]
TTITLE5=[Japanese Titles]
TTITLE6=[Japanese Titles]
TTITLE7=[Japanese Titles]
TTITLE8=[Japanese Titles]
TTITLE9=[Japanese Titles]
TTITLE10=[Japanese Titles]
TTITLE11=[Japanese Titles]
TTITLE12=[Japanese Titles]
TTITLE13=[Japanese Titles]
TTITLE14=[Japanese Titles]
EXTD=YEAR: 2000
EXTT0=
EXTT1=
EXTT2=
EXTT3=
EXTT4=
EXTT5=
EXTT6=
EXTT7=
EXTT8=
EXTT9=
EXTT10=
EXTT11=
EXTT12=
EXTT13=
EXTT14=
PLAYORDER=
